<svg width="33" height="20" viewBox="0 0 33 20" fill="none" xmlns="http://www.w3.org/2000/svg">
<path d="M1.69179 19.2643C0.774598 19.2643 -0.0014878 18.5588 -0.0014878 17.2536V2.80191C-0.0014878 1.49667 0.774598 0.79114 1.69179 0.79114C2.1739 0.79114 2.56195 0.944005 3.04406 1.22622L15.0263 8.28154C15.6731 8.65782 16.0259 9.08114 16.1552 9.57502V2.80191C16.1552 1.49667 16.9313 0.79114 17.8485 0.79114C18.3306 0.79114 18.7304 0.944005 19.2007 1.22622L31.1948 8.28154C32.0179 8.77541 32.3824 9.3516 32.3824 10.0219C32.3824 10.7039 32.0179 11.2801 31.1948 11.7739L19.2007 18.8292C18.7304 19.1115 18.3306 19.2643 17.8485 19.2643C16.9313 19.2643 16.1552 18.5588 16.1552 17.2536V10.4804C16.0259 10.9743 15.6731 11.3976 15.0263 11.7739L3.04406 18.8292C2.57371 19.1115 2.1739 19.2643 1.69179 19.2643Z" fill="white"/>
</svg>
