<svg width="47" height="47" xmlns="http://www.w3.org/2000/svg" fill="none">

 <g>
  <title>Layer 1</title>
  <path id="svg_1" fill="white" d="m14.98985,38.03152c-1.55217,0 -2.37286,-0.8207 -2.37286,-2.3907l0,-24.29949c0,-1.55217 0.82069,-2.37286 2.37286,-2.37286l4.06775,0c1.55218,0 2.37286,0.74933 2.37286,2.37286l0,24.29949c0,1.57 -0.82068,2.3907 -2.37286,2.3907l-4.06775,0zm12.97047,0c-1.57,0 -2.3907,-0.8207 -2.3907,-2.3907l0,-24.29949c0,-1.55217 0.8207,-2.37286 2.3907,-2.37286l4.0499,0c1.57,0 2.3728,0.74933 2.3728,2.37286l0,24.29949c0,1.57 -0.8028,2.3907 -2.3728,2.3907l-4.0499,0z"/>
 </g>
</svg>