<svg width="47" height="47" viewBox="0 0 47 47" fill="none" xmlns="http://www.w3.org/2000/svg">
<g opacity="0.01">
<path d="M15 14.3913C15 13.6229 15.6229 13 16.3913 13H19.8696C20.638 13 21.2609 13.6229 21.2609 14.3913V33.1739C21.2609 33.9423 20.638 34.5652 19.8696 34.5652H16.3913C15.6229 34.5652 15 33.9423 15 33.1739V14.3913Z" fill="white"/>
<path d="M24.7391 14.3913C24.7391 13.6229 25.362 13 26.1304 13H29.6087C30.3771 13 31 13.6229 31 14.3913V33.1739C31 33.9423 30.3771 34.5652 29.6087 34.5652H26.1304C25.362 34.5652 24.7391 33.9423 24.7391 33.1739V14.3913Z" fill="white"/>
</g>
<path d="M13 11.5037V36.4149C13 38.3242 15.0539 39.5288 16.7204 38.5968L37.8885 26.757C39.9208 25.6202 39.9395 22.7021 37.9219 21.5394L16.7482 9.33765C15.0816 8.3772 13 9.58012 13 11.5037Z" fill="white"/>
</svg>
