<svg width="33" height="20" viewBox="0 0 33 20" fill="none" xmlns="http://www.w3.org/2000/svg">
<path d="M14.8279 19.2643C14.3458 19.2643 13.946 19.1115 13.4757 18.8292L1.49338 11.7739C0.658497 11.2801 0.305731 10.7039 0.305731 10.0219C0.305731 9.3516 0.658497 8.77541 1.49338 8.28154L13.4757 1.22622C13.9578 0.944004 14.3458 0.791138 14.8279 0.791138C15.7451 0.791138 16.5212 1.49667 16.5212 2.80191V9.57502C16.6506 9.08114 17.0033 8.65782 17.6501 8.28154L29.6324 1.22622C30.1145 0.944004 30.5025 0.791138 30.9846 0.791138C31.9018 0.791138 32.6779 1.49667 32.6779 2.80191V17.2536C32.6779 18.5588 31.9018 19.2643 30.9846 19.2643C30.5025 19.2643 30.1027 19.1115 29.6324 18.8292L17.6501 11.7739C17.0151 11.3976 16.6506 10.9743 16.5212 10.4804V17.2536C16.5212 18.5588 15.7451 19.2643 14.8279 19.2643Z" fill="white"/>
</svg>
